{"glyphs":{"0":{"ha":1189,"x_min":0,"x_max":0,"o":"m 380 974 b 108 702 230 974 108 853 l 108 3 l 808 3 b 1080 275 958 3 1080 125 l 1080 974 z m 963 275 b 808 120 963 189 894 120 l 380 120 b 225 275 295 120 225 189 l 225 702 b 380 858 225 788 295 858 l 808 858 b 963 702 894 858 963 788 z m 848 660 l 766 743 l 340 317 l 423 235 z "},"1":{"ha":1133,"x_min":0,"x_max":0,"o":"m 632 120 l 632 974 l 88 974 l 88 858 l 360 858 b 515 702 445 858 515 788 l 515 120 l 88 120 l 88 3 l 1059 3 l 1059 120 z "},"2":{"ha":1178,"x_min":0,"x_max":0,"o":"m 373 431 l 1073 431 l 1073 702 b 801 974 1073 853 951 974 l 101 974 l 101 858 l 801 858 b 956 702 887 858 956 788 l 956 547 l 373 547 b 101 275 223 547 102 425 l 101 3 l 1073 3 l 1073 120 l 218 120 l 218 275 b 373 431 218 361 288 430 z "},"3":{"ha":1168,"x_min":0,"x_max":0,"o":"m 1059 702 l 1059 974 l 88 974 l 88 858 l 942 858 l 942 702 b 787 547 942 617 873 547 l 515 547 l 515 430 l 787 430 b 942 275 873 430 942 361 l 942 120 l 88 120 l 88 3 l 1059 3 l 1059 275 b 953 489 1059 359 1020 438 b 1059 702 1020 540 1059 619 z "},"4":{"ha":1176,"x_min":0,"x_max":0,"o":"m 948 974 l 948 548 l 365 548 b 210 704 279 548 210 618 l 210 974 l 93 974 l 93 703 b 365 431 93 553 215 431 l 948 431 l 948 3 l 1065 3 l 1065 974 z "},"5":{"ha":1179,"x_min":0,"x_max":0,"o":"m 222 701 b 378 857 222 787 292 857 l 436 857 l 436 858 l 1077 858 l 1077 975 l 106 975 l 106 431 l 805 431 b 960 275 891 430 960 361 l 960 120 l 106 120 l 106 3 l 1077 3 l 1077 275 b 805 547 1077 425 955 547 l 222 547 l 222 701 z "},"6":{"ha":1186,"x_min":0,"x_max":0,"o":"m 380 858 l 1080 858 l 1080 974 l 380 974 b 108 702 230 974 109 853 l 108 3 l 1080 3 l 1080 547 l 225 547 l 225 702 b 380 858 225 788 295 858 z m 963 430 l 963 120 l 439 120 l 439 120 l 380 120 b 225 275 295 120 225 190 l 225 431 z "},"7":{"ha":1157,"x_min":0,"x_max":0,"o":"m 74 975 l 74 859 l 715 859 l 715 857 l 773 857 b 928 702 859 857 928 787 l 928 4 l 1045 4 l 1045 975 z "},"8":{"ha":1183,"x_min":0,"x_max":0,"o":"m 1077 702 l 1077 974 l 378 974 b 120 791 261 975 158 901 b 211 489 83 681 119 560 b 106 275 145 438 106 359 l 106 3 l 805 3 b 1063 186 921 2 1025 76 b 972 489 1100 296 1064 418 b 1077 702 1038 540 1077 619 z m 805 120 l 222 120 l 222 275 b 268 385 222 316 239 356 b 378 431 297 414 336 430 l 805 431 b 960 275 891 431 960 361 b 805 120 960 189 891 120 z m 960 702 b 805 547 960 617 891 547 l 378 547 b 222 702 292 547 222 617 b 378 858 222 788 292 857 l 960 858 z "},"9":{"ha":1178,"x_min":0,"x_max":0,"o":"m 798 974 l 371 974 b 99 702 220 974 99 853 b 371 430 99 552 220 430 l 798 430 b 953 479 854 430 908 447 l 953 275 b 798 120 953 189 884 120 l 99 120 l 99 3 l 798 3 b 1070 275 948 3 1070 125 l 1070 702 b 798 974 1070 853 948 974 z m 798 547 l 371 547 b 215 702 285 547 216 617 b 371 858 216 788 285 857 l 798 858 b 953 702 884 858 953 788 b 798 547 953 617 884 547 z "},"\u0000":{"ha":0,"x_min":0,"x_max":0,"o":""},"\n":{"ha":0,"x_min":0,"x_max":0,"o":""},"\r":{"ha":0,"x_min":0,"x_max":0,"o":""}," ":{"ha":556,"x_min":0,"x_max":0,"o":""},"!":{"ha":419,"x_min":0,"x_max":0,"o":"m 268 214 l 268 972 l 151 972 l 151 214 z m 321 1 l 321 117 l 97 117 l 97 1 z "},"\"":{"ha":521,"x_min":0,"x_max":0,"o":"m 202 640 l 202 971 l 85 971 l 85 640 z m 435 640 l 435 971 l 319 971 l 319 640 z "},"“":{"ha":521,"x_min":0,"x_max":0,"o":"m 202 640 l 202 971 l 85 971 l 85 640 z m 435 640 l 435 971 l 319 971 l 319 640 z "},"”":{"ha":521,"x_min":0,"x_max":0,"o":"m 202 640 l 202 971 l 85 971 l 85 640 z m 435 640 l 435 971 l 319 971 l 319 640 z "},"#":{"ha":1161,"x_min":0,"x_max":0,"o":"m 1066 588 l 1066 705 l 800 705 l 800 971 l 683 971 l 683 705 l 477 705 l 477 971 l 360 971 l 360 705 l 94 705 l 94 588 l 360 588 l 360 382 l 94 382 l 94 265 l 360 265 l 360 -1 l 477 -1 l 477 265 l 683 265 l 683 -1 l 800 -1 l 800 265 l 1066 265 l 1066 382 l 800 382 l 800 588 z m 683 382 l 477 382 l 477 588 l 683 588 z "},"$":{"ha":1181,"x_min":0,"x_max":0,"o":"m 1076 854 l 1076 971 l 648 971 l 648 1146 l 532 1146 l 532 971 l 376 971 b 104 699 226 970 104 849 l 104 427 l 532 427 l 532 116 l 104 116 l 104 -1 l 532 -1 l 532 -176 l 648 -176 l 648 -1 l 804 -1 b 1076 271 954 -1 1076 121 l 1076 544 l 648 544 l 648 854 z m 532 543 l 221 543 l 221 699 b 376 854 221 784 291 854 l 532 854 z m 959 426 l 959 271 b 804 116 959 185 889 116 l 648 116 l 648 427 z "},"%":{"ha":1206,"x_min":0,"x_max":0,"o":"m 815 544 b 727 527 785 543 755 538 l 1112 912 l 1029 995 l 644 610 b 660 699 654 638 660 668 b 388 971 660 849 538 971 b 116 699 238 971 116 849 b 388 427 116 548 238 427 b 477 443 418 427 448 432 l 92 58 l 174 -25 l 559 360 b 543 271 549 332 544 302 b 815 -1 543 121 665 -1 b 1087 271 966 -1 1087 121 b 815 544 1087 422 966 544 z m 388 544 b 233 699 302 544 233 613 b 388 854 233 785 302 854 b 543 699 474 854 543 785 b 388 544 543 613 474 544 z m 815 116 b 660 271 730 116 660 186 b 815 427 660 357 730 427 b 971 271 901 427 971 357 b 815 116 971 186 901 116 z "},"&":{"ha":956,"x_min":0,"x_max":0,"o":"m 376 544 b 221 699 291 544 221 613 b 376 854 221 785 291 854 b 532 699 462 854 532 785 l 532 640 l 648 640 l 648 699 b 437 966 649 826 561 938 b 130 817 312 994 185 932 b 210 485 76 701 109 563 b 131 155 110 407 77 270 b 437 6 186 40 313 -22 b 648 271 561 34 649 144 l 648 415 b 745 271 707 391 745 334 l 745 213 l 862 213 l 862 544 z m 532 271 b 376 116 532 186 462 116 b 221 271 291 116 221 186 b 376 427 221 357 291 427 l 532 427 z "},"'":{"ha":288,"x_min":0,"x_max":0,"o":"m 202 640 l 202 971 l 85 971 l 85 640 z "},"‘":{"ha":288,"x_min":0,"x_max":0,"o":"m 202 640 l 202 971 l 85 971 l 85 640 z "},"’":{"ha":288,"x_min":0,"x_max":0,"o":"m 202 640 l 202 971 l 85 971 l 85 640 z "},"(":{"ha":528,"x_min":0,"x_max":0,"o":"m 379 854 l 438 854 l 438 971 l 379 971 b 107 699 229 970 107 849 l 107 271 b 379 -1 107 121 229 -1 l 438 -1 l 438 116 l 379 116 b 224 271 293 116 224 185 l 224 699 b 379 854 224 784 293 854 z "},")":{"ha":528,"x_min":0,"x_max":0,"o":"m 379 854 l 438 854 l 438 971 l 379 971 b 107 699 229 970 107 849 l 107 271 b 379 -1 107 121 229 -1 l 438 -1 l 438 116 l 379 116 b 224 271 293 116 224 185 l 224 699 b 379 854 224 784 293 854 z "},"*":{"ha":703,"x_min":0,"x_max":0,"o":"m 616 784 l 557 885 l 409 800 l 409 971 l 293 971 l 293 800 l 145 885 l 86 784 l 234 699 l 86 613 l 145 512 l 293 597 l 293 426 l 409 426 l 409 597 l 557 512 l 616 613 l 468 699 z "},"+":{"ha":706,"x_min":0,"x_max":0,"o":"m 411 543 l 411 757 l 294 757 l 294 543 l 81 543 l 81 426 l 294 426 l 294 213 l 411 213 l 411 426 l 625 426 l 625 543 z "},",":{"ha":486,"x_min":0,"x_max":0,"o":"m 289 192 l 289 134 b 133 -21 289 48 219 -21 l 75 -21 l 75 -138 l 133 -138 b 406 134 284 -138 406 -16 l 406 192 z "},"-":{"ha":675,"x_min":0,"x_max":0,"o":"m 609 426 l 609 543 l 65 543 l 65 426 z "},".":{"ha":356,"x_min":0,"x_max":0,"o":"m 289 3 l 289 120 l 65 120 l 65 3 z "},"/":{"ha":1160,"x_min":0,"x_max":0,"o":"m 1090 912 l 1007 994 l 69 57 l 152 -26 z "},":":{"ha":318,"x_min":0,"x_max":0,"o":"m 217 2 l 217 333 l 100 333 l 100 2 z m 217 644 l 217 974 l 100 974 l 100 644 z "},";":{"ha":507,"x_min":0,"x_max":0,"o":"m 292 273 b 136 118 291 187 222 118 l 78 118 l 78 1 l 136 1 b 408 273 287 1 408 123 l 408 331 l 292 331 z m 408 644 l 408 974 l 292 974 l 292 644 z "},"<":{"ha":631,"x_min":0,"x_max":0,"o":"m 544 787 l 461 870 l 76 485 l 461 100 l 544 183 l 242 485 z "},"=":{"ha":700,"x_min":0,"x_max":0,"o":"m 622 309 l 622 426 l 78 426 l 78 309 z m 622 543 l 622 660 l 78 660 l 78 543 z "},">":{"ha":631,"x_min":0,"x_max":0,"o":"m 169 870 l 86 787 l 388 485 l 86 183 l 169 100 l 554 485 z "},"?":{"ha":1143,"x_min":0,"x_max":0,"o":"m 774 970 l 75 970 l 75 853 l 775 853 b 930 698 860 853 930 784 l 930 545 l 561 545 b 289 272 411 544 289 423 l 289 214 l 406 214 l 406 272 b 561 428 406 358 475 428 l 1047 428 l 1047 698 b 774 970 1046 848 925 970 z m 459 -1 l 459 116 l 235 116 l 235 -1 z "},"@":{"ha":1190,"x_min":0,"x_max":0,"o":"m 379 974 b 107 702 228 974 107 852 l 107 273 b 379 1 107 123 228 1 l 865 1 l 865 118 l 379 118 b 224 273 293 118 224 187 l 224 702 b 379 857 224 788 293 857 l 806 857 b 962 702 892 857 962 788 l 962 1 l 1078 1 l 1078 974 z m 590 761 b 338 593 480 761 381 694 b 398 296 296 491 320 374 b 695 237 476 218 593 195 b 862 489 796 279 862 379 b 590 761 862 639 740 761 z m 590 334 b 435 489 504 334 435 403 b 590 644 435 575 504 644 b 745 489 676 644 745 575 b 701 378 746 448 730 407 b 590 331 671 348 632 332 z "},"A":{"ha":1186,"x_min":0,"x_max":0,"o":"m 375 972 b 103 700 225 971 103 850 l 103 0 l 220 0 l 220 427 l 958 427 l 958 0 l 1074 0 l 1074 972 z m 958 641 l 958 544 l 220 544 l 220 700 b 375 855 220 785 289 855 l 803 855 b 958 700 888 855 958 785 z "},"B":{"ha":1176,"x_min":0,"x_max":0,"o":"m 1074 699 l 1074 972 l 375 972 b 103 700 225 971 103 850 l 103 0 l 1074 0 l 1074 272 b 969 486 1074 356 1035 435 b 1074 699 1035 537 1074 616 z m 958 117 l 375 117 b 220 272 289 117 220 186 l 220 427 l 802 427 b 958 272 888 427 958 358 z m 958 699 b 802 544 958 614 888 544 l 220 544 l 220 700 b 375 855 220 785 289 855 l 958 855 z "},"C":{"ha":1119,"x_min":0,"x_max":0,"o":"m 220 700 b 375 855 220 785 289 855 l 1074 855 l 1074 972 l 375 972 b 103 700 225 971 103 850 l 103 0 l 1074 0 l 1074 117 l 375 117 b 220 272 289 117 220 186 z "},"D":{"ha":1176,"x_min":0,"x_max":0,"o":"m 811 976 l 111 976 l 111 4 l 811 4 b 1083 276 961 4 1083 126 l 1083 704 b 811 976 1083 854 961 976 z m 966 276 b 811 121 966 191 896 121 l 383 121 b 228 276 297 121 228 191 l 228 859 l 811 859 b 966 704 896 859 966 790 z "},"E":{"ha":1150,"x_min":0,"x_max":0,"o":"m 375 855 l 1074 855 l 1074 972 l 375 972 b 103 700 225 971 103 850 l 103 0 l 1074 0 l 1074 117 l 375 117 b 220 272 289 117 220 186 l 220 427 l 1074 427 l 1074 544 l 220 544 l 220 700 b 375 855 220 785 289 855 z "},"F":{"ha":1128,"x_min":0,"x_max":0,"o":"m 375 855 l 1074 855 l 1074 972 l 375 972 b 103 700 225 971 103 850 l 103 0 l 220 0 l 220 272 b 375 427 220 358 289 427 l 1074 427 l 1074 544 l 220 544 l 220 700 b 375 855 220 785 289 855 z "},"G":{"ha":1168,"x_min":0,"x_max":0,"o":"m 219 700 b 375 855 219 785 289 855 l 1074 855 l 1074 972 l 375 972 b 103 700 225 971 103 850 l 103 0 l 1074 0 l 1074 544 l 528 544 l 528 427 l 958 427 l 958 117 l 433 117 l 433 119 l 375 119 b 220 274 289 119 220 188 l 220 700 z "},"H":{"ha":1194,"x_min":0,"x_max":0,"o":"m 966 972 l 966 544 l 383 544 b 228 699 298 544 228 614 l 228 972 l 111 972 l 111 0 l 228 0 l 228 427 l 966 427 l 966 0 l 1083 0 l 1083 972 z "},"I":{"ha":1061,"x_min":0,"x_max":0,"o":"m 589 700 b 744 855 589 785 658 855 l 1016 855 l 1016 972 l 44 972 l 44 855 l 472 855 l 472 117 l 44 117 l 44 0 l 1016 0 l 1016 117 l 589 117 z "},"J":{"ha":1146,"x_min":0,"x_max":0,"o":"m 500 972 l 500 855 l 927 855 l 927 272 b 772 117 927 186 858 117 l 403 117 l 403 119 l 344 119 b 189 274 259 119 189 188 l 189 546 l 72 546 l 72 0 l 772 0 b 1044 272 922 0 1044 122 l 1044 972 z "},"K":{"ha":1176,"x_min":0,"x_max":0,"o":"m 966 974 l 966 702 b 811 546 966 616 896 546 l 228 546 l 228 974 l 111 974 l 111 2 l 228 2 l 228 429 l 384 429 b 540 274 470 429 539 360 b 812 2 540 124 661 2 l 1083 2 l 1083 119 l 812 119 b 656 274 726 119 656 188 b 607 429 656 330 639 384 l 1083 429 l 1083 974 z "},"L":{"ha":1106,"x_min":0,"x_max":0,"o":"m 442 117 l 442 119 l 383 119 b 228 274 297 119 228 188 l 228 972 l 111 972 l 111 0 l 1083 0 l 1083 117 z "},"M":{"ha":1186,"x_min":0,"x_max":0,"o":"m 811 974 l 111 974 l 111 2 l 228 2 l 228 857 l 539 857 l 539 2 l 655 2 l 655 857 l 811 857 b 966 702 896 857 966 787 l 966 2 l 1083 2 l 1083 702 b 811 974 1083 852 961 974 z "},"N":{"ha":1194,"x_min":0,"x_max":0,"o":"m 966 974 l 966 119 l 811 119 b 655 274 725 119 655 188 l 655 702 b 383 974 655 852 534 974 l 111 974 l 111 2 l 228 2 l 228 857 l 383 857 b 539 702 469 857 538 787 l 539 274 b 811 2 539 124 660 2 l 1083 2 l 1083 974 z "},"O":{"ha":1176,"x_min":0,"x_max":0,"o":"m 375 972 b 103 700 225 971 103 850 l 103 0 l 802 0 b 1074 272 953 0 1074 122 l 1074 972 z m 957 641 l 957 272 b 802 117 957 186 888 117 l 375 117 b 220 272 289 117 220 186 l 220 700 b 375 855 220 785 289 855 l 802 855 b 958 700 888 855 957 785 z "},"P":{"ha":1146,"x_min":0,"x_max":0,"o":"m 375 972 b 103 700 225 971 103 850 l 103 0 l 220 0 l 220 427 l 1074 427 l 1074 972 z m 958 544 l 220 544 l 220 700 b 375 855 220 785 289 855 l 958 855 z "},"Q":{"ha":1186,"x_min":0,"x_max":0,"o":"m 375 972 b 103 700 225 971 103 850 l 103 0 l 1074 0 l 1074 972 z m 958 117 l 802 117 b 647 272 717 117 647 186 l 647 544 l 530 544 l 530 272 b 579 117 530 217 547 162 l 219 117 l 219 700 b 375 855 220 785 289 855 l 957 855 z "},"R":{"ha":1168,"x_min":0,"x_max":0,"o":"m 1074 974 l 375 974 b 103 702 225 974 103 852 l 103 2 l 220 2 l 220 429 l 376 429 b 531 274 462 429 531 360 b 803 2 531 124 653 2 l 1074 2 l 1074 119 l 803 119 b 648 274 718 119 648 188 b 599 429 648 330 631 384 l 1074 429 z m 958 546 l 220 546 l 220 702 b 375 857 220 787 289 857 l 958 857 z "},"S":{"ha":1133,"x_min":0,"x_max":0,"o":"m 357 857 l 1056 857 l 1056 974 l 357 974 b 85 702 207 974 85 852 l 85 430 l 784 430 b 940 274 870 429 939 360 l 940 119 l 85 119 l 85 2 l 1056 2 l 1056 274 b 784 546 1056 424 935 546 l 202 546 l 202 702 b 357 857 202 787 271 857 z "},"T":{"ha":1014,"x_min":0,"x_max":0,"o":"m 21 972 l 21 855 l 448 855 l 448 0 l 565 0 l 565 700 b 720 855 565 785 635 855 l 992 855 l 992 972 z "},"U":{"ha":1185,"x_min":0,"x_max":0,"o":"m 956 972 l 956 117 l 373 117 b 218 272 288 117 218 186 l 218 972 l 101 972 l 101 272 b 373 0 102 122 223 0 l 1073 0 l 1073 972 z "},"V":{"ha":1104,"x_min":0,"x_max":0,"o":"m 876 972 l 876 117 l 507 117 b 351 272 421 117 351 186 l 351 698 b 79 970 351 848 229 970 l 21 970 l 21 853 l 79 853 b 235 698 165 853 234 783 l 235 272 b 507 0 235 122 356 0 l 992 0 l 992 972 z "},"W":{"ha":1185,"x_min":0,"x_max":0,"o":"m 956 974 l 956 119 l 646 119 l 646 974 l 529 974 l 529 119 l 373 119 b 218 274 288 119 218 188 l 218 974 l 101 974 l 101 274 b 373 2 102 124 223 2 l 1073 2 l 1073 974 z "},"X":{"ha":1175,"x_min":0,"x_max":0,"o":"m 1073 701 l 1073 974 l 956 974 l 956 702 b 801 546 956 616 886 546 l 587 545 l 373 546 b 218 702 288 547 218 616 l 218 974 l 101 974 l 101 702 b 208 487 102 617 141 538 b 101 272 141 436 102 357 l 101 0 l 218 0 l 218 272 b 374 427 218 358 288 427 l 587 428 l 801 427 b 956 272 887 427 956 358 l 956 0 l 1073 0 l 1073 272 b 966 487 1073 356 1033 436 b 1073 701 1033 538 1073 617 z "},"Y":{"ha":1150,"x_min":0,"x_max":0,"o":"m 931 972 l 931 546 l 348 546 b 193 701 263 546 193 616 l 193 972 l 76 972 l 76 701 b 348 429 77 551 198 430 l 931 429 l 931 274 b 776 119 931 188 862 119 l 76 119 l 76 2 l 776 2 b 1048 274 926 2 1048 124 l 1048 972 z "},"Z":{"ha":1126,"x_min":0,"x_max":0,"o":"m 348 429 l 776 429 b 1048 701 926 430 1048 551 l 1048 974 l 76 974 l 76 857 l 931 857 l 931 702 b 776 546 931 616 862 547 l 348 546 b 76 274 198 546 77 424 l 76 2 l 1048 2 l 1048 119 l 193 119 l 193 274 b 348 429 193 360 263 429 z "},"[":{"ha":532,"x_min":0,"x_max":0,"o":"m 442 854 l 442 971 l 111 971 l 111 -1 l 442 -1 l 442 116 l 228 116 l 228 854 z "},"\\":{"ha":1160,"x_min":0,"x_max":0,"o":"m 1089 57 l 152 995 l 69 912 l 1007 -25 z "},"]":{"ha":532,"x_min":0,"x_max":0,"o":"m 90 971 l 90 854 l 304 854 l 304 116 l 90 116 l 90 -1 l 421 -1 l 421 971 z "},"^":{"ha":610,"x_min":0,"x_max":0,"o":"m 305 970 l 71 736 l 153 654 l 305 805 l 456 654 l 538 736 z "},"_":{"ha":1103,"x_min":0,"x_max":0,"o":"m 1037 3 l 1037 120 l 65 120 l 65 3 z "},"a":{"ha":1119,"x_min":0,"x_max":0,"o":"m 769 548 l 69 548 l 69 432 l 769 432 b 913 335 832 432 889 393 l 342 335 b 69 63 191 335 70 213 l 69 4 l 1041 4 l 1041 276 b 769 548 1041 427 919 548 z m 924 121 l 198 121 b 342 218 222 180 278 218 l 924 218 z "},"b":{"ha":1140,"x_min":0,"x_max":0,"o":"m 790 549 l 207 549 l 207 976 l 90 976 l 90 4 l 1062 4 l 1062 276 b 790 549 1062 427 940 549 z m 945 121 l 363 121 b 207 276 277 121 207 190 l 207 432 l 790 432 b 945 276 876 432 945 362 z "},"c":{"ha":1111,"x_min":0,"x_max":0,"o":"m 350 432 l 1049 432 l 1049 549 l 350 549 b 78 276 200 548 78 427 l 78 4 l 1049 4 l 1049 121 l 195 121 l 195 276 b 350 432 195 362 264 432 z "},"d":{"ha":1140,"x_min":0,"x_max":0,"o":"m 933 976 l 933 549 l 350 549 b 78 276 200 548 78 427 l 78 4 l 1049 4 l 1049 976 z m 933 276 b 777 121 933 191 863 121 l 195 121 l 195 276 b 350 432 195 362 264 432 l 933 432 z "},"e":{"ha":1136,"x_min":0,"x_max":0,"o":"m 1049 217 l 1049 547 l 350 547 b 78 275 200 547 78 425 l 78 3 l 1049 3 l 1049 120 l 195 120 l 195 217 z m 350 431 l 933 431 l 933 334 l 206 334 b 350 431 230 392 287 430 z "},"f":{"ha":1053,"x_min":0,"x_max":0,"o":"m 740 859 l 1012 859 l 1012 976 l 740 976 b 468 704 590 976 468 854 l 468 549 l 40 549 l 40 432 l 468 432 l 468 4 l 585 4 l 585 275 b 740 431 585 361 654 430 l 798 431 l 798 432 l 1012 432 l 1012 548 l 585 548 l 585 704 b 740 859 585 790 654 859 z "},"g":{"ha":1143,"x_min":0,"x_max":0,"o":"m 351 549 b 79 276 201 548 79 427 l 79 4 l 934 4 l 934 -151 b 779 -306 934 -237 864 -306 l 79 -306 l 79 -423 l 779 -423 b 1051 -151 929 -423 1051 -301 l 1051 549 z m 934 121 l 351 121 b 199 276 267 123 199 192 b 351 432 199 361 267 430 l 934 432 z "},"h":{"ha":1140,"x_min":0,"x_max":0,"o":"m 790 549 l 648 548 l 648 549 l 207 549 l 207 976 l 90 976 l 90 4 l 207 4 l 207 275 b 363 431 207 361 277 431 l 790 432 b 945 276 876 432 945 362 l 945 4 l 1062 4 l 1062 276 b 790 549 1062 427 940 548 z "},"i":{"ha":1056,"x_min":0,"x_max":0,"o":"m 586 121 l 586 549 l 255 549 l 255 432 l 314 432 b 469 276 399 432 469 362 l 469 121 l 42 121 l 42 4 l 1013 4 l 1013 121 z m 586 859 l 586 976 l 255 976 l 255 859 z "},"j":{"ha":463,"x_min":0,"x_max":0,"o":"m 40 549 l 40 432 l 99 432 b 254 276 184 432 254 362 l 254 -151 b 99 -306 254 -237 184 -306 l -174 -306 l -174 -423 l 99 -423 b 371 -151 249 -423 370 -301 l 371 549 z m 371 859 l 371 976 l 40 976 l 40 859 z "},"k":{"ha":1142,"x_min":0,"x_max":0,"o":"m 792 549 l 504 549 l 768 812 b 877 857 797 841 836 857 l 1004 857 l 1004 974 l 877 974 b 685 894 805 974 736 946 l 384 594 b 275 549 355 565 316 548 l 207 549 l 207 976 l 90 976 l 90 4 l 207 4 l 207 275 b 362 431 207 361 277 431 l 421 431 l 421 432 l 792 432 b 947 276 877 432 947 362 l 947 4 l 1064 4 l 1064 276 b 792 549 1064 427 942 548 z "},"l":{"ha":1056,"x_min":0,"x_max":0,"o":"m 732 121 b 586 275 650 126 586 193 l 586 976 l 255 976 l 255 859 l 314 859 b 469 704 400 859 469 789 l 469 121 l 42 121 l 42 4 l 732 4 b 741 3 735 4 738 3 l 799 3 l 799 4 l 1013 4 l 1013 121 z "},"m":{"ha":1140,"x_min":0,"x_max":0,"o":"m 790 549 l 90 549 l 90 4 l 207 4 l 207 432 l 518 432 l 518 4 l 634 4 l 634 432 l 790 432 b 945 276 876 432 945 362 l 945 4 l 1062 4 l 1062 276 b 790 549 1062 427 940 548 z "},"n":{"ha":1140,"x_min":0,"x_max":0,"o":"m 790 549 l 90 549 l 90 4 l 207 4 l 207 432 l 790 432 b 945 276 876 432 945 362 l 945 4 l 1062 4 l 1062 276 b 790 549 1062 427 940 548 z "},"o":{"ha":1125,"x_min":0,"x_max":0,"o":"m 350 549 b 78 276 200 548 78 427 l 78 4 l 777 4 b 1049 276 928 4 1049 126 l 1049 548 z m 933 276 b 777 121 932 191 863 121 l 195 121 l 195 276 b 350 432 195 362 264 432 l 933 432 z "},"p":{"ha":1139,"x_min":0,"x_max":0,"o":"m 422 549 l 92 549 l 92 -423 l 208 -423 l 208 4 l 791 4 b 1063 276 941 4 1063 126 l 1063 548 z m 946 276 b 791 121 946 191 877 121 l 208 121 l 208 276 b 364 432 209 362 278 432 l 946 432 z "},"q":{"ha":1131,"x_min":0,"x_max":0,"o":"m 339 549 b 100 414 240 550 149 498 b 100 139 50 329 50 224 b 339 4 149 54 240 3 l 921 4 l 921 -423 l 1038 -423 l 1038 549 z m 921 121 l 339 121 b 202 198 282 120 230 149 b 202 355 173 246 173 306 b 339 432 230 403 282 433 l 921 432 z "},"r":{"ha":1103,"x_min":0,"x_max":0,"o":"m 421 549 l 90 549 l 90 4 l 207 4 l 207 276 b 362 432 207 362 277 431 l 1062 432 l 1062 548 z "},"s":{"ha":1115,"x_min":0,"x_max":0,"o":"m 346 432 l 1045 432 l 1045 549 l 346 549 b 74 276 196 548 74 427 l 74 218 l 773 218 b 917 121 836 218 893 180 l 74 121 l 74 4 l 1045 4 l 1045 63 b 773 335 1045 213 923 335 l 202 335 b 346 432 226 393 283 432 z "},"t":{"ha":1085,"x_min":0,"x_max":0,"o":"m 754 121 b 599 276 668 121 599 190 l 599 432 l 1012 432 l 1012 548 l 599 548 l 599 976 l 482 976 l 482 549 l 40 549 l 40 432 l 482 432 l 482 276 b 754 4 482 126 604 4 l 1026 4 l 1026 121 z "},"u":{"ha":1138,"x_min":0,"x_max":0,"o":"m 930 549 l 930 276 b 775 121 930 191 860 121 l 347 121 b 192 276 261 121 192 191 l 192 549 l 75 549 l 75 276 b 347 4 75 126 197 4 l 1047 4 l 1047 549 z "},"v":{"ha":1103,"x_min":0,"x_max":0,"o":"m 895 549 l 895 121 l 827 121 b 718 166 786 121 747 137 l 417 467 b 225 546 366 518 297 547 l 40 546 l 40 430 l 225 430 b 335 384 266 430 306 413 l 635 84 b 827 4 686 33 755 4 l 1012 4 l 1012 549 z "},"w":{"ha":1138,"x_min":0,"x_max":0,"o":"m 930 549 l 930 121 l 619 121 l 619 549 l 502 549 l 502 121 l 347 121 b 192 276 261 121 192 190 l 192 548 l 75 548 l 75 276 b 347 4 75 126 197 4 l 1047 4 l 1047 549 z "},"x":{"ha":981,"x_min":0,"x_max":0,"o":"m 791 417 l 917 417 l 917 534 l 791 534 b 599 454 719 534 650 506 l 490 346 l 381 454 b 189 534 330 506 261 534 l 63 534 l 63 417 l 189 417 b 298 372 230 417 269 401 l 407 263 l 298 154 b 189 109 269 125 230 109 l 63 109 l 63 -8 l 189 -8 b 381 71 261 -8 330 21 l 490 180 l 599 71 b 791 -8 650 20 719 -8 l 917 -8 l 917 109 l 791 109 b 681 154 750 108 710 125 l 572 263 l 681 372 b 791 417 710 401 750 417 z "},"y":{"ha":1132,"x_min":0,"x_max":0,"o":"m 923 547 l 923 122 l 347 122 b 192 277 261 122 192 192 l 192 547 l 75 547 l 75 277 b 347 5 75 127 197 5 l 923 5 l 923 -150 b 768 -305 923 -236 853 -305 l 68 -305 l 68 -422 l 768 -422 b 1040 -150 918 -422 1040 -300 l 1040 547 z "},"z":{"ha":1110,"x_min":0,"x_max":0,"o":"m 342 218 l 769 218 b 1041 490 919 218 1041 340 l 1041 549 l 69 549 l 69 432 l 913 432 b 769 335 889 373 832 335 l 342 335 b 69 63 191 335 70 213 l 69 4 l 1041 4 l 1041 121 l 198 121 b 342 218 222 180 278 218 z "},"{":{"ha":713,"x_min":0,"x_max":0,"o":"m 411 700 l 411 854 l 625 854 l 625 971 l 294 971 l 294 700 b 139 545 294 614 225 545 l 81 545 l 81 428 l 139 428 b 294 273 225 428 294 358 l 294 -1 l 625 -1 l 625 116 l 411 116 l 411 273 b 305 486 411 356 372 435 b 411 700 372 537 411 616 z "},"|":{"ha":340,"x_min":0,"x_max":0,"o":"m 228 -176 l 228 1146 l 111 1146 l 111 -176 z "},"}":{"ha":713,"x_min":0,"x_max":0,"o":"m 573 545 b 418 700 488 545 418 614 l 418 971 l 87 971 l 87 854 l 301 854 l 301 700 b 407 486 301 616 340 537 b 301 273 341 435 301 356 l 301 116 l 87 116 l 87 -1 l 418 -1 l 418 273 b 573 428 418 358 488 428 l 632 428 l 632 545 l 573 545 z "},"~":{"ha":913,"x_min":0,"x_max":0,"o":"m 758 933 l 717 892 b 497 892 655 833 558 833 b 112 892 391 998 218 998 l 71 851 l 153 768 l 195 809 b 414 809 256 868 353 868 b 799 809 521 703 693 703 l 840 851 z "}," ":{"ha":556,"x_min":0,"x_max":0,"o":""},"¡":{"ha":419,"x_min":0,"x_max":0,"o":"m 268 0 l 268 758 l 151 758 l 151 0 z m 321 855 l 321 972 l 97 972 l 97 855 z "},"¢":{"ha":947,"x_min":0,"x_max":0,"o":"m 362 640 l 850 640 l 850 757 l 587 757 l 587 971 l 470 971 l 470 757 l 362 757 b 90 485 212 757 90 635 b 362 213 90 335 212 213 l 470 213 l 470 -1 l 587 -1 l 587 213 l 850 213 l 850 330 l 362 330 b 207 485 277 330 207 399 b 362 640 207 571 277 640 z "},"£":{"ha":950,"x_min":0,"x_max":0,"o":"m 577 854 l 850 854 l 850 971 l 577 971 b 305 699 427 971 305 849 l 305 544 l 92 544 l 92 427 l 305 427 l 305 271 b 150 116 305 186 236 116 l 92 116 l 92 -1 l 850 -1 l 850 116 l 373 116 b 422 271 405 162 422 216 l 422 427 l 850 427 l 850 544 l 422 544 l 422 699 b 577 854 422 785 492 854 z "},"¤":{"ha":865,"x_min":0,"x_max":0,"o":"m 661 631 l 776 746 l 693 828 l 579 714 b 286 714 489 771 375 771 l 171 828 l 89 746 l 203 631 b 203 338 146 542 146 428 l 89 224 l 171 141 l 286 256 b 579 256 375 198 490 198 l 693 141 l 776 224 l 661 338 b 661 631 718 428 718 542 z m 542 375 b 323 375 481 316 384 316 b 323 594 262 436 262 534 b 542 594 383 655 481 655 b 542 375 603 534 603 436 z "},"¥":{"ha":1000,"x_min":0,"x_max":0,"o":"m 902 924 l 808 994 l 500 582 l 191 994 l 97 924 l 383 543 l 121 543 l 121 427 l 441 427 l 441 291 l 121 291 l 121 175 l 441 175 l 441 -1 l 558 -1 l 558 175 l 878 175 l 878 291 l 558 291 l 558 427 l 878 427 l 878 543 l 616 543 z "},"§":{"ha":760,"x_min":0,"x_max":0,"o":"m 651 786 l 651 856 b 390 1117 651 1000 535 1117 b 182 1028 312 1117 237 1084 b 107 833 132 976 104 906 b 150 699 109 785 124 739 b 153 394 92 605 93 486 b 370 280 200 320 282 277 l 379 280 b 490 234 421 280 461 263 l 493 231 b 535 131 518 204 533 168 b 492 23 536 91 520 52 b 368 -31 460 -11 415 -30 b 224 114 289 -30 224 34 l 224 183 l 107 183 l 107 114 b 368 -147 107 -30 224 -147 b 575 -58 446 -147 521 -115 b 651 136 626 -6 653 64 b 608 271 648 184 634 231 b 614 558 663 358 665 469 b 378 689 565 641 475 692 b 270 735 338 689 298 706 l 265 739 b 223 838 240 766 225 801 b 266 947 222 878 237 918 b 390 1000 298 980 343 1000 b 534 856 469 1000 534 935 l 534 786 z m 237 614 b 379 572 279 587 328 573 b 512 502 433 575 484 548 b 521 356 538 458 541 403 b 379 397 478 382 429 397 l 370 397 b 253 453 324 394 280 415 b 237 614 222 501 216 561 z "},"©":{"ha":1164,"x_min":0,"x_max":0,"o":"m 582 993 b 96 508 313 993 96 776 b 582 22 96 239 313 22 b 1067 507 850 22 1067 239 b 582 993 1067 776 850 993 z m 582 138 b 241 366 432 138 298 228 b 321 768 184 504 215 663 b 723 848 426 874 585 905 b 951 507 861 791 951 657 b 582 138 950 304 785 139 z m 692 618 l 733 577 l 815 659 l 774 701 b 389 701 668 807 496 807 b 389 316 283 594 283 422 b 774 316 496 210 668 210 l 815 357 l 733 440 l 692 399 b 472 399 630 340 533 340 b 426 508 443 428 426 467 b 472 618 426 550 443 589 b 692 618 533 677 630 677 z "},"­":{"ha":0,"x_min":0,"x_max":0,"o":""},"®":{"ha":1164,"x_min":0,"x_max":0,"o":"m 582 994 b 96 508 313 994 96 777 b 582 23 96 240 313 23 b 1067 508 850 23 1067 240 b 582 994 1067 777 850 994 z m 582 139 b 241 367 432 139 298 229 b 321 769 184 505 215 664 b 723 849 426 875 585 906 b 951 508 861 792 951 658 b 582 139 950 305 785 140 z m 817 597 b 670 744 817 678 751 744 l 346 744 l 346 273 l 463 273 l 463 450 l 493 450 b 524 420 510 450 524 437 b 671 273 524 339 589 273 l 817 273 l 817 390 l 671 390 b 640 420 654 390 640 403 b 637 450 640 430 639 440 l 670 450 b 817 597 751 450 817 516 z m 463 567 l 463 627 l 670 627 b 700 597 687 627 700 614 b 670 567 700 580 687 567 z "},"¶":{"ha":979,"x_min":0,"x_max":0,"o":"m 89 699 b 361 426 89 548 211 427 l 516 426 l 516 -1 l 633 -1 l 633 971 l 361 971 b 89 699 211 970 89 849 z m 867 -1 l 867 971 l 750 971 l 750 -1 z "},"¿":{"ha":1140,"x_min":0,"x_max":0,"o":"m 210 116 l 210 271 b 363 424 210 356 279 424 l 579 424 b 851 696 729 425 851 546 l 851 755 l 734 755 l 734 696 b 579 541 734 611 665 541 l 363 541 b 93 271 214 541 93 420 l 93 -1 l 1065 -1 l 1065 116 z m 902 853 l 902 970 l 679 970 l 679 853 z "},"À":{"ha":1186,"x_min":0,"x_max":0,"o":"m 375 974 b 103 702 225 974 103 852 l 103 1 l 220 1 l 220 428 l 957 428 l 957 0 l 1074 0 l 1074 974 z m 959 644 l 959 547 l 220 547 l 220 700 b 264 811 219 741 235 781 b 375 857 294 840 333 857 l 803 857 b 957 702 888 857 957 788 z m 747 1147 l 513 1381 l 430 1298 l 664 1065 z "},"Á":{"ha":1186,"x_min":0,"x_max":0,"o":"m 1075 700 l 1075 974 l 374 974 b 103 702 224 974 103 852 l 103 1 l 220 1 l 220 428 l 957 428 l 957 0 l 1074 0 l 1074 701 z m 959 544 l 221 544 l 221 700 b 265 811 220 741 236 781 b 376 857 294 840 334 857 l 803 857 b 959 702 889 857 958 788 z m 748 1298 l 665 1381 l 431 1147 l 514 1065 z "},"Â":{"ha":1186,"x_min":0,"x_max":0,"o":"m 375 974 b 103 702 225 974 103 852 l 103 1 l 220 1 l 220 428 l 957 428 l 957 0 l 1074 0 l 1074 974 z m 959 644 l 959 547 l 220 547 l 220 700 b 264 811 219 741 235 781 b 375 857 294 840 333 857 l 802 857 b 957 702 888 857 957 788 z m 588 1216 l 739 1064 l 822 1147 l 588 1381 l 355 1147 l 437 1064 z "},"Ã":{"ha":1186,"x_min":0,"x_max":0,"o":"m 374 974 b 103 702 225 973 103 852 l 103 1 l 220 1 l 220 428 l 957 428 l 957 0 l 1074 0 l 1074 974 z m 959 644 l 959 547 l 220 547 l 220 700 b 264 811 219 741 235 781 b 374 857 293 840 333 857 l 802 857 b 957 702 888 857 957 788 z m 478 1181 b 547 1181 498 1200 528 1200 b 781 1181 612 1117 716 1117 l 822 1223 l 739 1305 l 698 1264 b 664 1250 689 1255 677 1250 b 630 1264 651 1250 639 1255 b 396 1264 564 1327 461 1327 l 355 1223 l 437 1140 z "},"Ä":{"ha":1186,"x_min":0,"x_max":0,"o":"m 375 974 b 103 702 225 974 103 852 l 103 1 l 220 1 l 220 428 l 958 428 l 958 0 l 1075 0 l 1075 974 z m 959 644 l 959 547 l 220 547 l 220 700 b 264 811 219 741 235 781 b 375 857 294 840 333 857 l 803 857 b 958 702 888 857 958 788 z m 530 1133 l 530 1250 l 307 1250 l 307 1133 z m 871 1133 l 871 1250 l 647 1250 l 647 1133 z "},"Å":{"ha":1186,"x_min":0,"x_max":0,"o":"m 589 1057 b 754 1223 680 1057 754 1131 b 589 1388 754 1314 680 1388 b 423 1223 497 1388 423 1314 b 589 1057 423 1131 497 1057 z m 589 1271 b 637 1223 616 1271 637 1249 b 589 1174 637 1196 616 1174 b 540 1223 562 1174 540 1196 b 589 1271 540 1249 562 1271 z m 375 974 b 103 702 225 974 103 852 l 103 1 l 220 1 l 220 428 l 958 428 l 958 0 l 1075 0 l 1075 974 z m 959 644 l 959 547 l 220 547 l 220 700 b 264 811 219 741 235 781 b 375 857 294 840 333 857 l 803 857 b 958 702 888 857 958 788 z "},"Æ":{"ha":1151,"x_min":0,"x_max":0,"o":"m 1076 857 l 1076 974 l 375 974 b 103 702 225 974 103 852 l 103 1 l 220 1 l 220 428 l 530 428 l 530 0 l 1074 0 l 1074 117 l 802 117 b 649 273 717 118 649 188 l 649 428 l 1076 428 l 1076 544 l 649 544 l 649 857 z m 532 857 l 532 547 l 221 547 l 221 700 b 266 811 221 741 237 781 b 377 857 295 840 335 857 z "},"Ç":{"ha":1121,"x_min":0,"x_max":0,"o":"m 218 700 b 264 811 218 741 234 782 b 375 857 293 841 333 857 l 1076 857 l 1076 974 l 375 974 b 103 702 225 974 103 852 l 103 1 l 530 1 l 530 -96 l 423 -96 l 423 -154 b 569 -318 423 -238 486 -308 b 749 -193 652 -328 730 -275 b 647 1 769 -112 725 -29 l 1076 1 l 1076 117 l 375 117 b 264 162 334 117 294 133 b 218 273 235 192 218 231 z m 539 -107 l 587 -107 b 632 -136 607 -107 625 -118 b 622 -189 640 -155 636 -175 b 569 -200 608 -203 587 -208 b 539 -155 551 -193 539 -175 z "},"È":{"ha":1151,"x_min":0,"x_max":0,"o":"m 375 857 l 1076 857 l 1076 974 l 375 974 b 103 702 225 974 103 852 l 103 1 l 1076 1 l 1076 118 l 375 118 b 219 273 289 118 220 187 l 219 428 l 1076 428 l 1076 544 l 219 544 l 219 700 b 264 811 219 741 235 781 b 375 857 293 841 333 857 z m 747 1147 l 513 1381 l 430 1298 l 664 1065 z "},"É":{"ha":1151,"x_min":0,"x_max":0,"o":"m 375 857 l 1076 857 l 1076 974 l 375 974 b 103 702 225 974 103 852 l 103 1 l 1076 1 l 1076 118 l 375 118 b 220 273 290 118 221 187 l 220 428 l 1076 428 l 1076 544 l 220 544 l 220 700 b 265 811 220 741 236 781 b 375 857 294 840 334 857 z m 747 1298 l 665 1381 l 431 1147 l 514 1064 z "},"Ê":{"ha":1150,"x_min":0,"x_max":0,"o":"m 375 857 l 1076 857 l 1076 974 l 375 974 b 103 702 225 974 103 852 l 103 1 l 1075 1 l 1075 118 l 374 118 b 220 273 289 119 220 188 l 220 428 l 1075 428 l 1075 544 l 220 544 l 220 700 b 264 811 219 741 235 781 b 375 857 294 840 333 857 z m 589 1216 l 739 1064 l 822 1147 l 589 1381 l 355 1147 l 437 1064 z "},"Ë":{"ha":1150,"x_min":0,"x_max":0,"o":"m 375 857 l 1076 857 l 1076 974 l 375 974 b 103 702 225 974 103 852 l 103 1 l 1075 1 l 1075 118 l 374 118 b 220 273 289 119 220 188 l 220 427 l 1075 427 l 1075 544 l 220 544 l 220 699 b 264 811 219 741 235 781 b 375 857 294 840 333 857 z m 530 1133 l 530 1250 l 307 1250 l 307 1133 z m 871 1133 l 871 1250 l 647 1250 l 647 1133 z "},"Ì":{"ha":1061,"x_min":0,"x_max":0,"o":"m 588 700 b 633 811 588 741 604 781 b 744 857 662 840 702 857 l 1016 857 l 1016 974 l 44 974 l 44 857 l 471 857 l 471 117 l 44 117 l 44 0 l 1016 0 l 1016 117 l 588 117 z m 688 1147 l 454 1381 l 372 1298 l 606 1065 z "},"Í":{"ha":1064,"x_min":0,"x_max":0,"o":"m 588 700 b 633 811 588 741 604 781 b 744 857 662 840 702 857 l 1018 857 l 1018 974 l 44 974 l 44 857 l 471 857 l 471 117 l 44 117 l 44 0 l 1018 0 l 1018 117 l 591 117 l 591 701 z m 689 1299 l 606 1381 l 372 1147 l 455 1065 z "},"Î":{"ha":1061,"x_min":0,"x_max":0,"o":"m 588 700 b 633 811 588 741 604 781 b 744 857 662 840 702 857 l 1016 857 l 1016 974 l 44 974 l 44 857 l 471 857 l 471 117 l 44 117 l 44 0 l 1016 0 l 1016 117 l 588 117 z m 530 1216 l 681 1064 l 764 1147 l 530 1381 l 296 1147 l 379 1064 z "},"Ï":{"ha":1063,"x_min":0,"x_max":0,"o":"m 589 700 b 634 811 588 742 604 782 b 745 857 663 841 704 857 l 1018 857 l 1018 974 l 46 974 l 46 857 l 472 857 l 472 117 l 44 117 l 44 0 l 1016 0 l 1016 117 l 589 117 z m 473 1133 l 473 1250 l 249 1250 l 249 1133 z m 814 1133 l 814 1250 l 590 1250 l 590 1133 z "},"Ñ":{"ha":1196,"x_min":0,"x_max":0,"o":"m 967 974 l 967 119 l 812 119 b 657 273 727 119 658 188 l 657 701 b 385 974 657 852 535 974 l 111 974 l 111 2 l 228 2 l 228 857 l 383 857 b 539 701 469 857 539 787 l 539 273 b 619 81 539 201 568 131 b 812 2 671 30 740 1 l 1084 2 l 1084 974 z m 489 1181 b 557 1181 508 1200 538 1200 b 791 1181 622 1117 726 1117 l 833 1223 l 750 1305 l 709 1264 b 675 1250 700 1255 687 1250 b 640 1264 662 1250 649 1255 b 407 1264 575 1326 472 1326 l 366 1223 l 448 1140 z "},"Ò":{"ha":1176,"x_min":0,"x_max":0,"o":"m 375 974 b 103 702 225 974 103 852 l 103 1 l 804 1 b 1074 273 953 2 1074 123 l 1074 974 z m 957 273 b 803 117 957 187 888 118 l 375 117 b 220 273 289 117 220 187 l 220 700 b 264 811 219 741 235 781 b 375 857 294 840 333 857 l 803 857 b 957 702 888 857 957 788 z m 747 1147 l 513 1381 l 431 1298 l 665 1065 z "},"Ó":{"ha":1176,"x_min":0,"x_max":0,"o":"m 375 974 b 103 702 225 974 103 852 l 103 1 l 804 1 b 1074 273 953 2 1074 123 l 1074 974 z m 957 273 b 802 117 957 187 888 117 l 375 117 b 220 273 289 117 220 187 l 220 700 b 264 811 219 741 235 781 b 375 857 294 840 333 857 l 802 857 b 957 702 888 857 957 788 z m 747 1298 l 664 1381 l 431 1147 l 513 1064 z "},"Ô":{"ha":1174,"x_min":0,"x_max":0,"o":"m 374 974 b 103 702 225 973 103 852 l 103 1 l 804 1 b 1072 273 952 3 1072 124 l 1072 974 z m 955 273 b 800 117 955 187 885 117 l 372 117 b 220 273 287 119 220 188 l 220 700 b 264 811 219 741 235 781 b 374 857 293 840 333 857 l 802 857 b 955 700 888 856 956 785 z m 588 1216 l 739 1064 l 822 1147 l 588 1381 l 355 1147 l 437 1064 z "},"Õ":{"ha":1176,"x_min":0,"x_max":0,"o":"m 375 974 b 103 702 225 974 103 852 l 103 1 l 804 1 b 1074 273 953 2 1074 123 l 1074 974 z m 957 273 b 802 117 957 187 888 117 l 375 117 b 220 273 289 117 220 187 l 220 700 b 264 811 219 741 235 781 b 375 857 294 840 333 857 l 802 857 b 957 702 888 857 957 788 z m 479 1181 b 547 1181 498 1200 528 1200 b 781 1181 612 1117 716 1117 l 822 1223 l 739 1305 l 698 1264 b 633 1266 679 1247 651 1248 b 399 1266 567 1328 464 1328 l 357 1224 l 440 1142 z "},"Ö":{"ha":1176,"x_min":0,"x_max":0,"o":"m 375 974 b 103 702 225 974 103 852 l 103 1 l 804 1 b 1074 273 953 2 1074 123 l 1074 974 z m 957 273 b 803 117 957 187 888 118 l 375 117 b 220 273 289 117 220 187 l 220 700 b 264 811 219 741 235 781 b 375 857 294 840 333 857 l 803 857 b 957 702 888 857 957 788 z m 530 1133 l 530 1250 l 306 1250 l 306 1133 z m 871 1133 l 871 1250 l 647 1250 l 647 1133 z "},"×":{"ha":635,"x_min":0,"x_max":0,"o":"m 551 636 l 468 719 l 317 567 l 166 719 l 83 636 l 234 485 l 83 334 l 166 251 l 317 402 l 468 251 l 551 334 l 400 485 z "},"Ø":{"ha":1176,"x_min":0,"x_max":0,"o":"m 374 974 b 103 702 225 973 103 852 l 103 1 l 804 1 b 1074 273 953 2 1074 123 l 1074 974 z m 223 273 l 223 700 b 374 857 221 785 289 855 l 802 857 b 860 845 822 857 842 853 l 232 214 b 220 273 224 233 220 253 z m 960 273 b 805 117 960 187 891 117 l 377 117 b 319 130 357 118 337 122 l 950 761 b 962 702 958 742 962 722 z "},"Ù":{"ha":1186,"x_min":0,"x_max":0,"o":"m 957 974 l 957 117 l 372 117 b 218 273 287 117 218 187 l 218 974 l 101 974 l 101 273 b 374 1 101 122 223 1 l 1075 1 l 1075 974 z m 746 1147 l 512 1381 l 429 1298 l 663 1065 z "},"Ú":{"ha":1186,"x_min":0,"x_max":0,"o":"m 956 974 l 956 117 l 372 117 b 218 273 286 118 218 187 l 218 974 l 101 974 l 101 273 b 374 1 101 122 223 1 l 1075 1 l 1075 974 z m 746 1298 l 663 1381 l 429 1147 l 512 1064 z "},"Û":{"ha":1186,"x_min":0,"x_max":0,"o":"m 956 974 l 956 117 l 372 117 b 218 273 286 118 218 187 l 218 974 l 101 974 l 101 273 b 374 1 101 122 223 1 l 1075 1 l 1075 974 z m 587 1216 l 738 1064 l 821 1147 l 587 1381 l 353 1147 l 436 1064 z "},"Ü":{"ha":1189,"x_min":0,"x_max":0,"o":"m 960 974 l 960 117 l 376 117 b 265 162 334 117 294 133 b 220 273 236 192 219 231 l 220 974 l 103 974 l 103 273 b 183 80 103 200 131 131 b 376 0 234 29 303 0 l 1077 0 l 1077 974 z m 530 1133 l 530 1250 l 306 1250 l 306 1133 z m 870 1133 l 870 1250 l 647 1250 l 647 1133 z "},"Ý":{"ha":1151,"x_min":0,"x_max":0,"o":"m 933 974 l 933 548 l 349 548 b 194 704 263 549 194 618 l 194 974 l 77 974 l 77 704 b 349 432 77 554 198 432 l 933 432 l 933 273 b 777 117 932 187 863 118 l 76 117 l 76 1 l 777 1 b 1050 273 928 1 1050 122 l 1050 974 z m 722 1298 l 639 1380 l 406 1147 l 488 1064 z "},"ß":{"ha":1126,"x_min":0,"x_max":0,"o":"m 957 486 b 1050 790 1050 556 1088 679 b 790 974 1012 901 907 975 l 362 974 b 90 702 212 974 91 852 l 90 1 l 207 1 l 207 702 b 362 857 207 788 277 857 l 790 857 b 933 782 848 860 903 832 b 933 621 962 733 962 671 b 790 547 903 572 848 543 l 304 547 l 304 430 l 791 430 b 946 275 876 430 946 360 b 791 119 946 189 876 119 l 304 119 l 304 2 l 790 2 b 1048 186 906 2 1010 75 b 957 488 1086 296 1049 417 z "},"à":{"ha":1119,"x_min":0,"x_max":0,"o":"m 770 544 l 69 544 l 69 427 l 770 427 b 913 331 833 427 889 389 l 342 331 b 149 251 269 331 200 303 b 69 59 98 200 69 131 l 69 0 l 1041 0 l 1041 273 b 770 544 1041 422 920 543 z m 926 117 l 198 117 b 342 215 222 176 278 214 l 926 215 z m 714 731 l 480 965 l 397 882 l 631 648 z "},"á":{"ha":1121,"x_min":0,"x_max":0,"o":"m 770 544 l 69 544 l 69 427 l 770 427 b 914 331 833 427 890 390 l 342 331 b 70 59 192 331 70 209 l 70 1 l 1043 1 l 1043 273 b 770 544 1042 423 920 544 z m 926 117 l 199 117 b 342 215 223 175 279 214 l 926 215 z m 716 882 l 633 965 l 399 731 l 482 648 z "},"â":{"ha":1121,"x_min":0,"x_max":0,"o":"m 769 544 l 68 544 l 68 427 l 769 427 b 914 331 833 428 890 390 l 343 331 b 72 59 193 331 72 209 l 72 1 l 1043 1 l 1043 273 b 962 465 1043 345 1014 415 b 769 544 911 516 841 545 z m 924 117 l 199 117 b 343 215 223 176 280 214 l 927 215 z m 557 799 l 708 648 l 791 731 l 557 965 l 323 731 l 406 648 z "},"ã":{"ha":1119,"x_min":0,"x_max":0,"o":"m 769 544 l 68 544 l 68 427 l 769 427 b 913 331 832 427 889 389 l 341 331 b 69 59 191 331 69 210 l 69 1 l 1041 1 l 1041 273 b 769 544 1041 423 919 544 z m 924 117 l 198 117 b 341 215 221 176 278 214 l 926 215 z m 445 765 b 514 765 465 784 495 784 b 631 717 545 735 587 717 b 747 765 674 717 716 734 l 789 806 l 707 889 l 665 848 b 597 848 646 829 616 829 b 363 848 531 910 428 910 l 322 806 l 404 724 z "},"ä":{"ha":1119,"x_min":0,"x_max":0,"o":"m 769 544 l 68 544 l 68 427 l 769 427 b 913 331 832 428 889 390 l 342 331 b 70 59 192 331 70 210 l 70 1 l 1041 1 l 1041 273 b 769 544 1041 423 919 544 z m 924 117 l 198 117 b 342 215 222 176 279 214 l 926 215 z m 497 717 l 497 834 l 274 834 l 274 717 z m 838 717 l 838 834 l 614 834 l 614 717 z "},"å":{"ha":1119,"x_min":0,"x_max":0,"o":"m 769 544 l 68 544 l 68 427 l 769 427 b 913 331 832 427 889 389 l 341 331 b 69 59 191 331 69 210 l 69 1 l 1041 1 l 1041 273 b 769 544 1041 423 919 544 z m 924 117 l 198 117 b 341 215 221 176 278 214 l 926 215 z m 555 642 b 708 744 622 642 682 682 b 672 924 734 806 719 877 b 492 959 625 971 553 985 b 390 806 430 934 390 873 b 555 642 390 715 464 642 z m 555 855 b 604 806 582 855 604 833 b 555 758 604 780 582 758 b 507 806 528 758 507 780 b 520 842 506 820 511 833 b 555 857 529 852 542 857 z "},"æ":{"ha":1115,"x_min":0,"x_max":0,"o":"m 1041 215 l 1041 273 b 769 545 1041 423 919 545 l 68 545 l 68 428 l 496 428 l 496 331 l 340 331 b 68 60 190 331 68 210 l 68 1 l 1040 1 l 1040 118 l 612 118 l 612 215 z m 614 428 l 769 428 b 913 331 832 428 889 390 l 614 331 z m 497 119 l 198 119 b 341 215 222 177 279 215 l 497 215 z "},"ç":{"ha":1113,"x_min":0,"x_max":0,"o":"m 349 428 l 1050 428 l 1050 545 l 349 545 b 78 273 200 544 78 423 l 78 1 l 1049 1 l 1049 118 l 195 118 l 195 273 b 349 428 195 358 264 427 z m 398 -97 l 398 -155 b 563 -320 398 -246 472 -320 b 729 -155 654 -320 729 -246 b 622 -1 728 -87 686 -25 l 505 -1 l 505 -98 z m 515 -107 l 563 -107 b 612 -155 590 -107 612 -128 b 563 -204 612 -182 590 -204 b 515 -155 537 -203 515 -182 z "},"è":{"ha":1135,"x_min":0,"x_max":0,"o":"m 1047 215 l 1047 544 l 346 544 b 78 273 198 542 78 421 l 78 1 l 1047 1 l 1047 118 l 192 118 l 192 215 z m 346 428 l 930 428 l 930 331 l 206 331 b 350 427 230 390 287 428 z m 722 731 l 488 965 l 406 882 l 640 648 z "},"é":{"ha":1138,"x_min":0,"x_max":0,"o":"m 1050 215 l 1050 544 l 349 544 b 78 273 199 543 78 422 l 78 1 l 1050 1 l 1050 118 l 195 118 l 195 215 z m 349 428 l 933 428 l 933 331 l 206 331 b 350 427 230 390 287 428 z m 722 882 l 640 965 l 406 731 l 488 648 z "},"ê":{"ha":1136,"x_min":0,"x_max":0,"o":"m 1049 215 l 1049 544 l 348 544 b 78 273 199 543 78 422 l 78 1 l 1049 1 l 1049 118 l 195 118 l 195 215 z m 348 428 l 932 428 l 932 331 l 206 331 b 348 427 230 389 285 427 z m 564 799 l 714 648 l 797 731 l 564 965 l 330 731 l 412 648 z "},"ë":{"ha":1138,"x_min":0,"x_max":0,"o":"m 1049 215 l 1049 544 l 348 544 b 78 273 199 543 78 422 l 78 1 l 1049 1 l 1049 118 l 195 118 l 195 215 z m 348 428 l 932 428 l 932 331 l 204 331 b 349 427 228 390 286 428 z m 505 717 l 505 834 l 281 834 l 281 717 z m 846 717 l 846 834 l 622 834 l 622 717 z "},"ì":{"ha":1056,"x_min":0,"x_max":0,"o":"m 586 117 l 586 545 l 254 545 l 254 428 l 312 428 b 423 383 353 428 393 412 b 469 273 452 354 469 314 l 469 118 l 42 118 l 42 1 l 1013 1 l 1013 118 z m 579 731 l 345 964 l 263 882 l 496 648 z "},"í":{"ha":1056,"x_min":0,"x_max":0,"o":"m 585 117 l 585 545 l 254 545 l 254 428 l 313 428 b 468 273 398 427 467 358 l 468 118 l 42 118 l 42 1 l 1013 1 l 1013 118 z m 578 882 l 495 964 l 261 731 l 344 648 z "},"î":{"ha":1056,"x_min":0,"x_max":0,"o":"m 583 117 l 583 545 l 253 545 l 253 428 l 311 428 b 466 273 396 427 465 358 l 466 118 l 42 118 l 42 1 l 1013 1 l 1013 118 z m 418 799 l 569 648 l 651 731 l 418 965 l 184 731 l 267 648 z "},"ï":{"ha":1056,"x_min":0,"x_max":0,"o":"m 584 117 l 584 545 l 254 545 l 254 428 l 312 428 b 467 273 397 427 467 358 l 467 118 l 42 118 l 42 1 l 1013 1 l 1013 118 z m 477 717 l 477 834 l 254 834 l 254 717 z m 798 717 l 798 834 l 574 834 l 574 717 z "},"ñ":{"ha":1142,"x_min":0,"x_max":0,"o":"m 791 545 l 90 545 l 90 0 l 207 0 l 207 428 l 791 428 b 947 273 877 427 946 358 l 947 1 l 1063 1 l 1063 273 b 791 545 1063 423 941 545 z m 468 765 b 537 765 487 784 517 784 b 653 717 568 734 610 717 b 770 765 697 717 739 734 l 812 806 l 729 889 l 687 848 b 619 848 668 829 638 829 b 385 848 554 910 451 910 l 344 806 l 427 724 z "},"ò":{"ha":1126,"x_min":0,"x_max":0,"o":"m 349 545 b 78 273 200 544 78 423 l 78 1 l 779 1 b 1049 273 928 2 1049 123 l 1049 545 z m 934 272 b 778 117 934 187 864 117 l 194 117 l 194 273 b 349 428 194 359 263 428 l 933 428 z m 722 730 l 488 964 l 405 882 l 639 648 z "},"ó":{"ha":1126,"x_min":0,"x_max":0,"o":"m 350 545 b 78 273 200 545 78 423 l 78 1 l 779 1 b 1050 273 929 1 1050 123 l 1050 545 z m 934 272 b 779 117 934 187 865 117 l 195 117 l 195 273 b 350 428 195 359 264 428 l 934 428 z m 722 882 l 639 964 l 406 731 l 488 648 z "},"ô":{"ha":1126,"x_min":0,"x_max":0,"o":"m 350 545 b 78 273 200 545 78 423 l 78 1 l 779 1 b 1050 273 929 1 1050 123 l 1050 545 z m 934 272 b 779 117 934 187 864 117 l 195 117 l 195 273 b 350 428 195 359 264 428 l 934 428 z m 564 799 l 715 648 l 797 731 l 564 965 l 330 731 l 412 648 z "},"õ":{"ha":1126,"x_min":0,"x_max":0,"o":"m 350 545 b 78 273 200 545 78 423 l 78 1 l 779 1 b 1050 273 929 1 1050 123 l 1050 545 z m 934 272 b 779 117 934 187 864 117 l 195 117 l 195 273 b 350 428 195 359 264 428 l 934 428 z m 454 765 b 522 765 473 784 503 784 b 639 717 553 734 595 717 b 756 765 683 717 725 734 l 797 806 l 715 889 l 674 848 b 605 848 655 829 624 829 b 372 848 540 910 437 910 l 331 806 l 413 724 z "},"ö":{"ha":1126,"x_min":0,"x_max":0,"o":"m 350 545 b 78 273 200 545 78 423 l 78 1 l 779 1 b 1050 273 929 1 1050 123 l 1050 545 z m 934 272 b 779 117 934 187 864 117 l 195 117 l 195 273 b 350 428 195 359 264 428 l 934 428 z m 505 717 l 505 834 l 282 834 l 282 717 z m 846 717 l 846 834 l 622 834 l 622 717 z "},"÷":{"ha":765,"x_min":0,"x_max":0,"o":"m 696 426 l 696 543 l 68 543 l 68 426 z m 441 658 l 441 799 l 324 799 l 324 658 z m 441 171 l 441 312 l 324 312 l 324 171 z "},"ø":{"ha":1126,"x_min":0,"x_max":0,"o":"m 350 545 b 78 273 200 545 78 423 l 78 1 l 779 1 b 1050 273 929 1 1050 123 l 1050 545 z m 405 194 l 326 115 l 195 115 l 195 273 b 350 428 195 359 264 428 l 637 428 l 489 281 z m 931 270 b 776 115 931 184 862 115 l 490 115 l 722 347 l 801 427 l 932 427 z "},"ù":{"ha":1140,"x_min":0,"x_max":0,"o":"m 721 731 l 487 964 l 404 882 l 638 648 z m 931 545 l 931 273 b 776 118 931 187 862 118 l 349 118 b 193 273 263 118 193 187 l 193 545 l 76 545 l 76 273 b 349 1 76 123 198 1 l 1050 1 l 1050 545 z "},"ú":{"ha":1140,"x_min":0,"x_max":0,"o":"m 721 882 l 638 964 l 404 731 l 487 648 z m 931 545 l 931 273 b 776 118 931 187 862 118 l 349 118 b 193 273 263 118 193 187 l 193 545 l 76 545 l 76 273 b 349 1 76 123 198 1 l 1050 1 l 1050 545 z "},"û":{"ha":1140,"x_min":0,"x_max":0,"o":"m 562 799 l 714 648 l 796 731 l 562 965 l 329 731 l 411 648 z m 932 545 l 932 273 b 776 118 931 187 862 118 l 349 118 b 193 273 263 118 193 187 l 193 545 l 76 545 l 76 273 b 349 1 76 123 198 1 l 1050 1 l 1050 545 z "},"ü":{"ha":1140,"x_min":0,"x_max":0,"o":"m 506 717 l 506 834 l 282 834 l 282 717 z m 846 717 l 846 834 l 623 834 l 623 717 z m 933 545 l 933 273 b 777 117 933 187 863 117 l 350 117 b 239 162 308 117 268 133 b 193 273 210 192 193 232 l 193 545 l 76 545 l 76 273 b 349 1 76 123 198 1 l 1050 1 l 1050 545 z "},"ý":{"ha":1133,"x_min":0,"x_max":0,"o":"m 924 544 l 924 119 l 348 119 b 193 273 263 119 194 188 l 193 544 l 76 544 l 76 273 b 348 2 77 123 198 2 l 923 2 l 923 -153 b 879 -265 924 -195 908 -235 b 769 -311 850 -294 810 -311 l 68 -311 l 68 -428 l 769 -428 b 1041 -156 919 -428 1041 -306 l 1041 544 z m 714 882 l 631 965 l 397 731 l 480 648 z "},"ÿ":{"ha":1132,"x_min":0,"x_max":0,"o":"m 923 544 l 923 119 l 347 119 b 192 273 262 119 193 188 l 192 544 l 75 544 l 75 273 b 347 1 75 123 197 1 l 923 1 l 923 -153 b 878 -265 924 -195 908 -235 b 768 -311 849 -294 809 -311 l 67 -311 l 67 -428 l 768 -428 b 1040 -156 918 -428 1040 -306 l 1040 544 z m 495 717 l 495 834 l 272 834 l 272 717 z m 836 717 l 836 834 l 612 834 l 612 717 z "},"Œ":{"ha":1151,"x_min":0,"x_max":0,"o":"m 1076 857 l 1076 974 l 375 974 b 103 702 225 974 103 852 l 103 1 l 1075 1 l 1075 117 l 803 117 b 648 273 717 118 648 187 l 648 427 l 1076 427 l 1076 544 l 648 544 l 648 857 z m 532 119 l 375 119 b 221 273 290 120 222 188 l 221 699 b 265 811 220 741 236 781 b 376 857 295 840 335 857 l 532 857 z "},"œ":{"ha":1124,"x_min":0,"x_max":0,"o":"m 1035 545 l 762 545 b 549 439 679 544 600 505 b 337 545 498 505 420 544 b 143 466 265 545 195 517 b 63 273 92 415 63 346 b 143 79 62 200 91 131 b 337 0 194 28 264 0 b 551 106 421 1 500 40 b 765 0 602 40 681 1 l 1037 0 l 1037 117 l 765 117 b 619 215 700 116 642 155 l 1035 215 z m 334 117 b 179 273 248 118 179 187 b 226 383 180 314 196 354 b 337 428 256 412 296 428 b 490 273 422 426 489 358 b 337 117 490 188 422 118 z m 918 331 l 618 331 b 762 428 642 389 699 428 l 918 428 z "},"Ÿ":{"ha":1151,"x_min":0,"x_max":0,"o":"m 933 973 l 933 548 l 349 548 b 194 704 263 549 194 618 l 194 973 l 77 973 l 77 704 b 349 431 77 554 198 432 l 933 431 l 933 273 b 777 117 932 187 863 117 l 76 117 l 76 0 l 777 0 b 1050 273 928 0 1050 122 l 1050 973 z m 506 1133 l 506 1250 l 282 1250 l 282 1133 z m 846 1133 l 846 1250 l 623 1250 l 623 1133 z "},"–":{"ha":1103,"x_min":0,"x_max":0,"o":"m 1037 430 l 1037 547 l 65 547 l 65 430 z "},"—":{"ha":1103,"x_min":0,"x_max":0,"o":"m 1037 430 l 1037 547 l 65 547 l 65 430 z "},"‰":{"ha":1617,"x_min":0,"x_max":0,"o":"m 1459 434 b 1244 538 1407 500 1328 538 l 1241 538 b 1028 433 1158 538 1079 499 b 725 522 958 526 834 562 l 1114 907 l 1031 989 l 646 605 b 662 694 656 633 662 664 b 390 966 662 844 540 966 b 118 694 239 966 118 844 b 390 422 118 544 239 422 b 479 437 420 422 450 428 l 93 54 l 176 -28 l 561 357 b 545 268 550 328 545 298 b 728 11 545 152 619 49 b 1031 102 838 -27 960 10 b 1287 -16 1087 17 1186 -28 b 1510 156 1387 -5 1473 62 b 1459 434 1546 251 1526 358 z m 387 537 b 232 693 301 537 232 607 b 387 848 232 779 301 848 b 542 693 473 848 542 779 b 387 537 542 607 473 537 z m 814 110 b 659 265 729 110 659 179 b 814 420 659 351 729 420 b 970 265 900 420 970 351 b 925 155 970 224 954 184 b 816 109 896 126 857 109 z m 1241 110 b 1086 265 1156 110 1086 179 b 1241 420 1086 351 1156 420 b 1397 265 1327 420 1397 351 b 1243 109 1397 179 1329 110 z "},"€":{"ha":1171,"x_min":0,"x_max":0,"o":"m 540 854 l 1065 854 l 1065 971 l 540 971 b 268 699 390 970 268 849 l 268 660 l 93 660 l 93 544 l 268 544 l 268 427 l 93 427 l 93 310 l 268 310 l 268 271 b 540 -1 268 121 390 -1 l 1065 -1 l 1065 116 l 540 116 b 385 271 455 116 385 186 l 385 310 l 1065 310 l 1065 427 l 385 427 l 385 544 l 1065 544 l 1065 660 l 385 660 l 385 699 b 540 854 385 784 455 854 z "},"™":{"ha":1129,"x_min":0,"x_max":0,"o":"m 578 946 l 578 641 l 694 641 l 694 829 l 753 829 l 753 641 l 870 641 l 870 829 l 928 829 l 928 641 l 1045 641 l 1045 946 z m 74 946 l 74 829 l 220 829 l 220 641 l 337 641 l 337 829 l 483 829 l 483 946 z "}}}
